<svg version="1.1" viewBox="0.0 0.0 652.3149606299213 652.3044619422573" fill="none" stroke="none" stroke-linecap="square" stroke-miterlimit="10" xmlns:xlink="http://www.w3.org/1999/xlink" xmlns="http://www.w3.org/2000/svg"><clipPath id="p.0"><path d="m0 0l652.31494 0l0 652.30444l-652.31494 0l0 -652.30444z" clip-rule="nonzero"/></clipPath><g clip-path="url(#p.0)"><path fill="#000000" fill-opacity="0.0" d="m0 0l652.31494 0l0 652.30444l-652.31494 0z" fill-rule="evenodd"/><path fill="#999999" d="m0 108.6111l0 0c0 -59.984257 48.626842 -108.6111 108.6111 -108.6111l434.43134 0l0 0c28.805481 0 56.431152 11.442922 76.79968 31.811453c20.36853 20.368532 31.811462 47.994186 31.811462 76.799644l0 434.43134c0 59.984253 -48.626892 108.611145 -108.611145 108.611145l-434.43134 0c-59.984257 0 -108.6111 -48.626892 -108.6111 -108.611145z" fill-rule="evenodd"/><path stroke="#000000" stroke-width="1.0" stroke-linejoin="round" stroke-linecap="butt" d="m0 108.6111l0 0c0 -59.984257 48.626842 -108.6111 108.6111 -108.6111l434.43134 0l0 0c28.805481 0 56.431152 11.442922 76.79968 31.811453c20.36853 20.368532 31.811462 47.994186 31.811462 76.799644l0 434.43134c0 59.984253 -48.626892 108.611145 -108.611145 108.611145l-434.43134 0c-59.984257 0 -108.6111 -48.626892 -108.6111 -108.611145z" fill-rule="evenodd"/><path fill="#000000" fill-opacity="0.0" d="m137.6063 -6.7454066l377.1024 0l0 665.7953l-377.1024 0z" fill-rule="evenodd"/><path fill="#ffffff" d="m384.99692 521.7233q-27.1875 0 -48.265625 -13.3280945q-21.0625 -13.34375 -34.390625 -30.40625l0 36.265594l-146.14062 0l0 -87.46872l23.46875 0l0 -240.00002l-23.46875 0l0 -87.453125l146.14062 0l0 154.65625q13.328125 -17.0625 34.390625 -30.390625q21.078125 -13.34375 48.265625 -13.34375q54.40625 0 81.875 40.53125q27.46875 40.531265 27.46875 115.20314q0 74.671875 -27.46875 115.203125q-27.46875 40.53122 -81.875 40.53122zm-51.71875 -94.93747q15.453125 0 23.1875 -8.265625q7.734375 -8.265625 7.734375 -25.859375l0 -53.34375q0 -17.59375 -7.734375 -25.859375q-7.734375 -8.265625 -23.1875 -8.265625q-15.46875 0 -23.203125 8.265625q-7.734375 8.265625 -7.734375 25.859375l0 53.34375q0 17.59375 7.734375 25.859375q7.734375 8.265625 23.203125 8.265625z" fill-rule="nonzero"/></g></svg>